REM DIRINDEX 1\2\4,1\2\5,1\3\6,1\3\7,1\3\8
REM DIRNAME cjc092,folder01,folder02,folder03,folder04,folder05,folder06,folder07
TITLE ""
FILE "LEVEL2-008-midashigo.mp3" MP3
  TRACK 01 AUDIO
    TITLE "0:"
    INDEX 01 00:00:00
  TRACK 02 AUDIO
    TITLE "6:cjc092_1172"
    INDEX 01 00:00:03
  TRACK 03 AUDIO
    TITLE "0:"
    INDEX 01 00:03:17
  TRACK 04 AUDIO
    TITLE "7:cjc092_1173"
    INDEX 01 00:03:68
  TRACK 05 AUDIO
    TITLE "8:cjc092_1174"
    INDEX 01 00:05:50
  TRACK 06 AUDIO
    TITLE "0:"
    INDEX 01 00:09:55
  TRACK 07 AUDIO
    TITLE "7:cjc092_1175"
    INDEX 01 00:10:16
  TRACK 08 AUDIO
    TITLE "8:cjc092_1176"
    INDEX 01 00:11:62
  TRACK 09 AUDIO
    TITLE "0:"
    INDEX 01 00:13:30
  TRACK 10 AUDIO
    TITLE "7:cjc092_1177"
    INDEX 01 00:13:63
  TRACK 11 AUDIO
    TITLE "8:cjc092_1178"
    INDEX 01 00:15:19
  TRACK 12 AUDIO
    TITLE "0:"
    INDEX 01 00:17:29
  TRACK 13 AUDIO
    TITLE "7:cjc092_1179"
    INDEX 01 00:17:63
  TRACK 14 AUDIO
    TITLE "8:cjc092_1180"
    INDEX 01 00:19:15
  TRACK 15 AUDIO
    TITLE "0:"
    INDEX 01 00:21:11
  TRACK 16 AUDIO
    TITLE "7:cjc092_1181"
    INDEX 01 00:21:47
  TRACK 17 AUDIO
    TITLE "8:cjc092_1182"
    INDEX 01 00:22:68
  TRACK 18 AUDIO
    TITLE "0:"
    INDEX 01 00:24:33
  TRACK 19 AUDIO
    TITLE "7:cjc092_1183"
    INDEX 01 00:24:67
  TRACK 20 AUDIO
    TITLE "8:cjc092_1184"
    INDEX 01 00:26:11
  TRACK 21 AUDIO
    TITLE "0:"
    INDEX 01 00:29:66
  TRACK 22 AUDIO
    TITLE "7:cjc092_1185"
    INDEX 01 00:30:28
  TRACK 23 AUDIO
    TITLE "8:cjc092_1186"
    INDEX 01 00:31:49
  TRACK 24 AUDIO
    TITLE "0:"
    INDEX 01 00:33:58
  TRACK 25 AUDIO
    TITLE "7:cjc092_1187"
    INDEX 01 00:34:18
  TRACK 26 AUDIO
    TITLE "8:cjc092_1188"
    INDEX 01 00:35:39
  TRACK 27 AUDIO
    TITLE "0:"
    INDEX 01 00:39:39
  TRACK 28 AUDIO
    TITLE "7:cjc092_1189"
    INDEX 01 00:39:66
  TRACK 29 AUDIO
    TITLE "8:cjc092_1190"
    INDEX 01 00:41:14
  TRACK 30 AUDIO
    TITLE "0:"
    INDEX 01 00:43:21
  TRACK 31 AUDIO
    TITLE "7:cjc092_1191"
    INDEX 01 00:43:54
  TRACK 32 AUDIO
    TITLE "8:cjc092_1192"
    INDEX 01 00:45:14
  TRACK 33 AUDIO
    TITLE "0:"
    INDEX 01 00:48:44
  TRACK 34 AUDIO
    TITLE "7:cjc092_1193"
    INDEX 01 00:49:04
  TRACK 35 AUDIO
    TITLE "8:cjc092_1194"
    INDEX 01 00:50:39
  TRACK 36 AUDIO
    TITLE "0:"
    INDEX 01 00:53:33
  TRACK 37 AUDIO
    TITLE "7:cjc092_1195"
    INDEX 01 00:53:68
  TRACK 38 AUDIO
    TITLE "8:cjc092_1196"
    INDEX 01 00:55:26
  TRACK 39 AUDIO
    TITLE "0:"
    INDEX 01 00:57:13
  TRACK 40 AUDIO
    TITLE "7:cjc092_1197"
    INDEX 01 00:57:45
  TRACK 41 AUDIO
    TITLE "8:cjc092_1198"
    INDEX 01 00:58:69
  TRACK 42 AUDIO
    TITLE "0:"
    INDEX 01 01:02:06
  TRACK 43 AUDIO
    TITLE "7:cjc092_1199"
    INDEX 01 01:02:42
  TRACK 44 AUDIO
    TITLE "8:cjc092_1200"
    INDEX 01 01:03:71
  TRACK 45 AUDIO
    TITLE "0:"
    INDEX 01 01:06:00
  TRACK 46 AUDIO
    TITLE "7:cjc092_1201"
    INDEX 01 01:06:38
  TRACK 47 AUDIO
    TITLE "8:cjc092_1202"
    INDEX 01 01:07:55
  TRACK 48 AUDIO
    TITLE "0:"
    INDEX 01 01:11:43
  TRACK 49 AUDIO
    TITLE "7:cjc092_1203"
    INDEX 01 01:11:68
  TRACK 50 AUDIO
    TITLE "8:cjc092_1204"
    INDEX 01 01:13:14
  TRACK 51 AUDIO
    TITLE "0:"
    INDEX 01 01:16:30
  TRACK 52 AUDIO
    TITLE "7:cjc092_1205"
    INDEX 01 01:17:10
  TRACK 53 AUDIO
    TITLE "8:cjc092_1206"
    INDEX 01 01:18:43
  TRACK 54 AUDIO
    TITLE "0:"
    INDEX 01 01:20:32
  TRACK 55 AUDIO
    TITLE "7:cjc092_1207"
    INDEX 01 01:20:67
  TRACK 56 AUDIO
    TITLE "8:cjc092_1208"
    INDEX 01 01:22:29
  TRACK 57 AUDIO
    TITLE "0:"
    INDEX 01 01:26:15
  TRACK 58 AUDIO
    TITLE "7:cjc092_1209"
    INDEX 01 01:26:44
  TRACK 59 AUDIO
    TITLE "8:cjc092_1210"
    INDEX 01 01:27:61
  TRACK 60 AUDIO
    TITLE "0:"
    INDEX 01 01:28:55
  TRACK 61 AUDIO
    TITLE "7:cjc092_1211"
    INDEX 01 01:29:11
  TRACK 62 AUDIO
    TITLE "8:cjc092_1212"
    INDEX 01 01:30:32
  TRACK 63 AUDIO
    TITLE "0:"
    INDEX 01 01:31:22
  TRACK 64 AUDIO
    TITLE "7:cjc092_1213"
    INDEX 01 01:31:57
  TRACK 65 AUDIO
    TITLE "8:cjc092_1214"
    INDEX 01 01:33:15
  TRACK 66 AUDIO
    TITLE "0:"
    INDEX 01 01:36:23
  TRACK 67 AUDIO
    TITLE "7:cjc092_1215"
    INDEX 01 01:36:56
  TRACK 68 AUDIO
    TITLE "8:cjc092_1216"
    INDEX 01 01:38:04
  TRACK 69 AUDIO
    TITLE "0:"
    INDEX 01 01:40:74
  TRACK 70 AUDIO
    TITLE "7:cjc092_1217"
    INDEX 01 01:41:34
  TRACK 71 AUDIO
    TITLE "8:cjc092_1218"
    INDEX 01 01:42:65
  TRACK 72 AUDIO
    TITLE "0:"
    INDEX 01 01:45:71
